<svg width="520" height="92" viewBox="0 0 520 92" fill="none" xmlns="http://www.w3.org/2000/svg">
<path d="M250.24 0.140137C240.916 0.140137 232.599 2.15601 225.291 6.06201C217.983 9.96801 212.187 15.3859 208.029 22.316C203.745 29.372 201.728 37.184 201.728 46.004C201.728 54.824 203.745 62.762 208.029 69.692C212.187 76.748 217.983 82.167 225.291 86.073C232.599 89.979 240.916 91.8679 250.24 91.8679C258.304 91.8679 265.485 90.4827 272.037 87.5847C278.463 84.8127 283.882 80.655 288.166 75.2367L272.289 60.8717C266.493 67.8017 259.564 71.2037 251.5 71.2037C246.712 71.2037 242.428 70.1973 238.648 68.0553C234.868 66.0393 231.969 63.015 229.953 59.235C227.937 55.455 226.929 51.0445 226.929 46.005C226.929 41.091 227.937 36.6815 229.953 32.901C231.969 29.121 234.868 26.0957 238.648 23.9537C242.428 21.9377 246.712 20.8053 251.5 20.8053C259.564 20.8053 266.493 24.3333 272.289 31.1373L288.166 16.7723C283.882 11.4803 278.463 7.32262 272.037 4.42432C265.485 1.65232 258.304 0.140137 250.24 0.140137ZM394.01 0.140137C385.442 0.140137 378.259 1.39943 372.463 3.91943C366.667 6.43943 362.257 9.96743 359.359 14.2514C356.335 18.5354 354.949 23.4496 354.949 28.7414C354.949 34.9154 356.46 39.8284 359.736 43.3564C362.886 47.0104 366.667 49.6578 371.203 51.2958C375.613 52.9338 381.158 54.445 387.836 55.831C393.884 57.217 398.168 58.4773 400.94 59.7373C403.712 60.9973 405.098 62.7603 405.098 65.2803C405.098 70.0683 400.309 72.4639 390.733 72.4639C385.693 72.4639 380.528 71.7074 375.362 70.0694C370.07 68.5574 365.534 66.4146 361.628 63.7686L353.439 82.1646C357.597 85.1886 363.014 87.4572 369.818 89.2212C376.496 90.9852 383.427 91.8657 390.609 91.8657C398.925 91.8657 406.107 90.6064 412.029 88.0864C417.825 85.5664 422.235 82.0384 425.259 77.7544C428.157 73.4704 429.669 68.6831 429.669 63.3914C429.669 57.3434 428.031 52.4294 424.755 48.9014C421.479 45.3734 417.698 42.7269 413.288 41.0889C408.878 39.4509 403.333 37.9388 396.655 36.4268C390.607 35.1668 386.324 34.0325 383.678 32.7725C380.906 31.6385 379.645 29.8755 379.645 27.4815C379.645 25.2135 380.779 23.3236 383.047 21.8116C385.315 20.2996 388.843 19.5421 393.883 19.5421C401.695 19.5421 409.886 21.8108 418.328 26.3468L426.013 7.82584C421.729 5.30584 416.688 3.41591 411.144 2.15591C405.474 0.895914 399.806 0.140137 394.01 0.140137ZM0.26001 1.90381V21.8118H40.957C48.517 21.8118 54.566 23.9536 59.102 28.2376C63.638 32.6476 66.0317 38.5696 66.0317 46.0036C66.0317 53.5636 63.638 59.4856 59.102 63.7696C54.566 68.0536 48.517 70.1954 40.957 70.1954H25.207V46.7594H0.26001V90.1034H41.965C51.541 90.1034 60.11 88.3394 67.67 84.6854C75.104 81.1574 80.899 75.9923 85.057 69.3144C89.089 62.7624 91.2328 54.9494 91.2328 46.0034C91.2328 37.1834 89.089 29.3704 85.057 22.6924C80.899 16.1404 75.1043 10.9754 67.67 7.32141C60.11 3.79341 51.541 1.90341 41.965 1.90341L0.26001 1.90381ZM113.11 1.90381V21.1808H183.04V1.90381H113.11ZM308.04 1.90381V90.1028H332.987V1.90381H308.04ZM449.82 1.90381V21.1808H519.75V1.90381H449.82ZM113.11 36.0498V54.6958H183.04V36.0498H113.11ZM449.82 36.0498V54.6958H519.75V36.0498H449.82ZM113.11 70.8248V90.1018H183.04V70.8248H113.11ZM449.82 70.8248V90.1018H519.75V70.8248H449.82Z" fill="white"/>
</svg>
